<svg xmlns="http://www.w3.org/2000/svg" width="8.758" height="9.199" viewBox="0 0 8.758 9.199"><defs><style>.a{fill:none;stroke:#707070;stroke-linecap:round;stroke-linejoin:round;}</style></defs><g transform="translate(-1.75 -1.75)"><path class="a" d="M22.818,11.82a.237.237,0,0,0-.1.019L19.363,13.58h0a.477.477,0,0,0-.236.4V17.5a.228.228,0,0,0,.24.217.259.259,0,0,0,.115-.026l.009-.006,3.3-1.753.006,0a.48.48,0,0,0,.259-.418V12.037A.229.229,0,0,0,22.818,11.82Z" transform="translate(-13.05 -7.269)"/><path class="a" d="M10.44,3.886,7.318,2.341a.921.921,0,0,0-.285-.091.905.905,0,0,0-.283.091L3.625,3.886s-.137.062-.137.18.143.217.143.217L6.817,6.132a.5.5,0,0,0,.435,0l3.185-1.851a.273.273,0,0,0,.129-.217A.212.212,0,0,0,10.44,3.886Z" transform="translate(-0.905)"/><path class="a" d="M5.947,13.575l-3.36-1.744a.265.265,0,0,0-.1-.019.229.229,0,0,0-.24.217v3.476a.48.48,0,0,0,.259.418l0,0,3.3,1.753a.25.25,0,0,0,.125.032.23.23,0,0,0,.24-.217V13.98A.473.473,0,0,0,5.947,13.575Z" transform="translate(0 -7.263)"/></g></svg>