<svg xmlns="http://www.w3.org/2000/svg" width="7.358" height="10.593" viewBox="0 0 7.358 10.593"><defs><style>.a{fill:#707070;stroke:#707070;stroke-width:0.4px;}</style></defs><g transform="translate(0.201 0.2)"><path class="a" d="M27.9,15.881l-1.01-3.366a.557.557,0,0,0,.144-.105.506.506,0,0,0,.158-.4.567.567,0,0,0-.6-.578H25.517a.482.482,0,0,1-.476-.524V6.961a.893.893,0,0,0-.493-.845A1.132,1.132,0,0,0,24.08,6h-1.8a.907.907,0,0,0-.855.493,1.23,1.23,0,0,0-.125.468v4.678a.974.974,0,0,0,.661.907l-1,3.336a.244.244,0,0,0,.165.3.249.249,0,0,0,.071.01.244.244,0,0,0,.233-.173l1.026-3.432,1.271-.02H23.9L24.925,16a.246.246,0,0,0,.3.168.252.252,0,0,0,.163-.31l-.983-3.286h.446l1.561.02,1.026,3.426a.245.245,0,0,0,.232.176.238.238,0,0,0,.232-.31Zm-6.1-4.252V6.963a.723.723,0,0,1,.064-.268.422.422,0,0,1,.412-.242h1.8a.968.968,0,0,1,.267.08.445.445,0,0,1,.241.428v3.951a1.029,1.029,0,0,0,.1.476.876.876,0,0,0,.829.5h1.078c.039,0,.112,0,.117.118,0,.04,0,.109-.117.109h-4.31A.474.474,0,0,1,21.808,11.63Z" transform="translate(-20.959 -6)"/></g></svg>