<svg xmlns="http://www.w3.org/2000/svg" width="16.359" height="15.729" viewBox="0 0 16.359 15.729"><path d="M15.329,3.937H15.29a4.474,4.474,0,0,0-3.736,2.045A4.474,4.474,0,0,0,7.819,3.937H7.779a4.446,4.446,0,0,0-4.4,4.444A9.572,9.572,0,0,0,5.255,13.6a32.94,32.94,0,0,0,6.3,6.068,32.94,32.94,0,0,0,6.3-6.068,9.572,9.572,0,0,0,1.88-5.218A4.446,4.446,0,0,0,15.329,3.937Zm1.636,9.013a30.161,30.161,0,0,1-5.411,5.332,30.206,30.206,0,0,1-5.411-5.336A8.483,8.483,0,0,1,4.476,8.381,3.336,3.336,0,0,1,7.787,5.042h.035a3.3,3.3,0,0,1,1.616.425,3.436,3.436,0,0,1,1.2,1.121,1.1,1.1,0,0,0,1.848,0,3.47,3.47,0,0,1,1.2-1.121,3.3,3.3,0,0,1,1.616-.425h.035A3.336,3.336,0,0,1,18.64,8.381,8.591,8.591,0,0,1,16.965,12.951Z" transform="translate(-3.375 -3.938)"/></svg>