<svg xmlns="http://www.w3.org/2000/svg" width="23.122" height="26" viewBox="0 0 23.122 26"><defs><style>.a{fill:#707070;}.b{fill:none;stroke:#707070;stroke-width:3px;}</style></defs><g transform="translate(-300.5 -638.5)"><path class="a" d="M36.531,16.452h-2.6V6.984h2.6c.775,0,1.155-.732.612-1.154L32.811,2.448a1.047,1.047,0,0,0-1.225,0L27.254,5.83c-.505.394-.234,1.154.612,1.154h2.6v9.468h-2.6c-.775,0-1.155.732-.612,1.154l4.332,3.381a1.047,1.047,0,0,0,1.225,0l4.332-3.381C37.648,17.213,37.378,16.452,36.531,16.452Z" transform="translate(279.539 639.75)"/><line class="b" x2="23.122" transform="translate(300.5 640)"/><line class="b" x2="23.122" transform="translate(300.5 663)"/></g></svg>