<svg xmlns="http://www.w3.org/2000/svg" width="14" height="13" viewBox="0 0 14 13"><defs><style>.a,.c{fill:none;}.a{stroke:#707070;}.b{stroke:none;}</style></defs><g transform="translate(-14 -533)"><g class="a" transform="translate(17 533)"><path class="b" d="M3,0H5A3,3,0,0,1,8,3V9A0,0,0,0,1,8,9H0A0,0,0,0,1,0,9V3A3,3,0,0,1,3,0Z"/><path class="c" d="M3,.5H5A2.5,2.5,0,0,1,7.5,3V8a.5.5,0,0,1-.5.5H1A.5.5,0,0,1,.5,8V3A2.5,2.5,0,0,1,3,.5Z"/></g><g class="a" transform="translate(17 541)"><rect class="b" width="8" height="5"/><rect class="c" x="0.5" y="0.5" width="7" height="4"/></g><g class="a" transform="translate(14 537)"><path class="b" d="M2,0H4A0,0,0,0,1,4,0V9A0,0,0,0,1,4,9H2A2,2,0,0,1,0,7V2A2,2,0,0,1,2,0Z"/><path class="c" d="M2,.5H3a.5.5,0,0,1,.5.5V8a.5.5,0,0,1-.5.5H2A1.5,1.5,0,0,1,.5,7V2A1.5,1.5,0,0,1,2,.5Z"/></g><g class="a" transform="translate(24 537)"><path class="b" d="M0,0H2A2,2,0,0,1,4,2V7A2,2,0,0,1,2,9H0A0,0,0,0,1,0,9V0A0,0,0,0,1,0,0Z"/><path class="c" d="M1,.5H2A1.5,1.5,0,0,1,3.5,2V7A1.5,1.5,0,0,1,2,8.5H1A.5.5,0,0,1,.5,8V1A.5.5,0,0,1,1,.5Z"/></g></g></svg>