<svg xmlns="http://www.w3.org/2000/svg" width="9.36" height="9.36" viewBox="0 0 9.36 9.36"><defs><style>.a{fill:#717171;}</style></defs><path class="a" d="M4.68.563a4.68,4.68,0,1,0,4.68,4.68A4.68,4.68,0,0,0,4.68.563ZM6.233,7.311l-.213.213a.451.451,0,0,0-.116.2c-.028.107-.052.215-.09.318l-.328.884a3.771,3.771,0,0,1-.8.089V8.5a1.413,1.413,0,0,0-.427-.967.6.6,0,0,1-.177-.427V6.5a.6.6,0,0,0-.311-.528c-.271-.15-.657-.36-.921-.493a2.72,2.72,0,0,1-.6-.41l-.015-.014a2.166,2.166,0,0,1-.341-.391c-.177-.26-.465-.687-.653-.965A3.8,3.8,0,0,1,3.186,1.778L3.639,2a.3.3,0,0,0,.437-.27V1.521a3.771,3.771,0,0,1,.46-.046l.534.534a.3.3,0,0,1,0,.427l-.089.088-.2.2a.151.151,0,0,0,0,.213l.089.089a.151.151,0,0,1,0,.213l-.151.151a.151.151,0,0,1-.107.044h-.17a.151.151,0,0,0-.105.043l-.187.182a.151.151,0,0,0-.03.176l.294.589a.151.151,0,0,1-.135.219H4.178a.151.151,0,0,1-.1-.037L3.9,4.449a.3.3,0,0,0-.293-.058l-.588.2A.226.226,0,0,0,2.993,5l.209.1a1.278,1.278,0,0,0,.572.135c.2,0,.426.515.6.6h1.26a.6.6,0,0,1,.427.177l.258.258a.576.576,0,0,1,.169.407.878.878,0,0,1-.259.622ZM7.869,5.587A.453.453,0,0,1,7.6,5.4L7.263,4.89a.452.452,0,0,1,0-.5l.37-.554a.452.452,0,0,1,.174-.154l.245-.122A3.656,3.656,0,0,1,8.42,5.724Z" transform="translate(0 -0.563)"/></svg>