<svg xmlns="http://www.w3.org/2000/svg" width="6.06" height="10" viewBox="0 0 6.06 10"><defs><style>.a{fill:none;stroke:#707070;stroke-linecap:round;}.b{fill:#707070;}</style></defs><g transform="translate(-862 -3291)"><line class="a" x2="5.06" transform="translate(862.5 3291.5)"/><line class="a" x2="5.06" transform="translate(862.5 3300.5)"/><g transform="translate(4.43 2)"><path class="b" d="M.7,5.119.469,4.872a.285.285,0,0,1,0-.378l1.98-2.168a.229.229,0,0,1,.345,0l1.98,2.167a.285.285,0,0,1,0,.378l-.226.248a.23.23,0,0,1-.349,0L3.03,3.771V6.976a.256.256,0,0,1-.245.268H2.459a.256.256,0,0,1-.245-.268V3.771L1.045,5.115a.229.229,0,0,1-.349,0Z" transform="translate(858.173 3288.002)"/><path class="b" d="M.7,4.371l-.226.248A.285.285,0,0,0,.469,5l1.98,2.168a.229.229,0,0,0,.345,0L4.774,5a.285.285,0,0,0,0-.378l-.226-.248a.23.23,0,0,0-.349,0L3.029,5.72V2.514a.256.256,0,0,0-.245-.268H2.459a.256.256,0,0,0-.245.268V5.72L1.045,4.376A.229.229,0,0,0,.7,4.371Z" transform="translate(858.173 3290.507)"/></g></g></svg>