<svg xmlns="http://www.w3.org/2000/svg" width="10.451" height="7.46" viewBox="0 0 10.451 7.46"><defs><style>.a{fill:#707070;}</style></defs><g transform="translate(-2.246 -6.75)"><path class="a" d="M7.47,6.75A7.707,7.707,0,0,0,2.306,8.808a.186.186,0,0,0-.007.266l.622.65a.191.191,0,0,0,.27.007A6.263,6.263,0,0,1,7.472,8.06a6.263,6.263,0,0,1,4.28,1.672.191.191,0,0,0,.27-.007l.622-.65a.186.186,0,0,0-.007-.266A7.727,7.727,0,0,0,7.47,6.75Z"/><path class="a" d="M7.845,16.4l.667.66a.191.191,0,0,0,.261.007,3.626,3.626,0,0,1,4.8,0,.191.191,0,0,0,.261-.007l.667-.66a.186.186,0,0,0-.007-.273,4.971,4.971,0,0,0-6.644,0A.19.19,0,0,0,7.845,16.4Z" transform="translate(-3.705 -5.414)"/><path class="a" d="M15.105,22.8a1.9,1.9,0,0,0-1.385.594.186.186,0,0,0,0,.261l1.245,1.229a.191.191,0,0,0,.27,0l1.245-1.229a.186.186,0,0,0,0-.261A1.908,1.908,0,0,0,15.105,22.8Z" transform="translate(-7.636 -10.725)"/></g></svg>