<svg xmlns="http://www.w3.org/2000/svg" width="8.844" height="8.609" viewBox="0 0 8.844 8.609"><defs><style>.a{fill:none;stroke:#707070;}.b{fill:#707070;}</style></defs><g transform="translate(-4.499 -3504.501)"><path class="a" d="M.923,7.609A.91.91,0,0,1,0,6.713V.9A.91.91,0,0,1,.923,0h6a.91.91,0,0,1,.923.9V6.713a.91.91,0,0,1-.923.9Z" transform="translate(4.999 3505.001)"/><path class="a" d="M168.3,166a2.265,2.265,0,1,0,2.3,2.265A2.284,2.284,0,0,0,168.3,166Z" transform="translate(-159.37 3340.608)"/><path class="b" d="M346.393,126a.388.388,0,1,0,.393.388A.391.391,0,0,0,346.393,126Z" transform="translate(-334.774 3379.804)"/></g></svg>